<svg xmlns="http://www.w3.org/2000/svg" viewBox="0 0 32 32">
  <defs>
    <linearGradient id="grad" x1="0%" y1="0%" x2="100%" y2="100%">
      <stop offset="0%" style="stop-color:#6366f1;stop-opacity:1" />
      <stop offset="100%" style="stop-color:#8b5cf6;stop-opacity:1" />
    </linearGradient>
  </defs>
  <!-- Hexagon background (hive) -->
  <path d="M16 2 L28 9 L28 23 L16 30 L4 23 L4 9 Z" fill="url(#grad)"/>
  <!-- Stylized S for Skill -->
  <path d="M11 10 Q11 8 14 8 L18 8 Q21 8 21 10 Q21 12 18 12 L14 12 Q11 12 11 14 Q11 16 14 16 L18 16 Q21 16 21 18 Q21 20 18 20 Q21 20 21 22 Q21 24 18 24 L14 24 Q11 24 11 22" 
        fill="none" stroke="white" stroke-width="2.5" stroke-linecap="round" stroke-linejoin="round"/>
</svg>
